<svg version="1.1" xmlns="http://www.w3.org/2000/svg" xmlns:xlink="http://www.w3.org/1999/xlink" width="69.77109" height="71.80808" viewBox="0,0,69.77109,71.80808"><g transform="translate(-202.68832,-141.78174)"><g data-paper-data="{&quot;isPaintingLayer&quot;:true}" fill-rule="evenodd" stroke-miterlimit="10" stroke-dasharray="" stroke-dashoffset="0" style="mix-blend-mode: normal"><g data-paper-data="{&quot;index&quot;:null}"><path d="M258.1014,201.62616c-3.21619,1.78676 -10.86373,2.57299 -10.86373,2.57299c-3.07325,-1.28649 -9.79161,-11.93584 -9.79161,-11.93584l14.22286,-6.8613c0,0 8.14779,4.28831 14.43732,12.79351" fill="#f9a41e" stroke="none" stroke-width="1" stroke-linecap="butt" stroke-linejoin="miter"/><path d="M258.1014,201.62616c-3.21619,1.78676 -10.86373,2.57299 -10.86373,2.57299c-3.07325,-1.28649 -9.79161,-11.93584 -9.79161,-11.93584l14.22286,-6.8613c0,0 7.2187,4.28831 14.43732,12.79351" fill="none" stroke="#231f20" stroke-width="0.9025" stroke-linecap="round" stroke-linejoin="round"/><path d="M249.09595,187.76061c2.85888,1.28649 8.14779,5.93213 6.64692,9.21983c-1.50095,3.28771 -10.29195,5.00303 -14.29438,-3.28771c-2.93039,-5.93213 4.78858,-7.14719 7.64745,-5.93213z" fill="#ffffff" stroke="none" stroke-width="1" stroke-linecap="butt" stroke-linejoin="miter"/></g><g data-paper-data="{&quot;index&quot;:null}"><path d="M266.10626,198.19551c0,0 4.28831,4.86009 5.64632,8.93395c1.71525,5.50337 -5.64632,8.86251 -8.86251,2.71593c-1.64389,-3.21619 -3.35922,-6.71836 -5.57481,-9.1484" fill="#f9a41e" stroke="none" stroke-width="1" stroke-linecap="butt" stroke-linejoin="miter"/><path d="M266.10626,198.19551c0,0 4.28831,4.86009 5.64632,8.93395c1.71525,5.50337 -5.64632,8.86251 -8.86251,2.71593c-1.64389,-3.21619 -3.35922,-6.71836 -5.57481,-9.1484" fill="none" stroke="#231f20" stroke-width="0.9025" stroke-linecap="round" stroke-linejoin="round"/></g><g data-paper-data="{&quot;index&quot;:null}"><path d="M244.80764,199.33906c2.6445,-0.78623 6.14658,1.28649 8.14779,4.86009c1.78684,3.21619 1.28649,6.93273 -1.28649,7.93334c-3.00182,1.21506 -6.78979,-1.00061 -8.50511,-5.28892c-1.42944,-3.64503 -0.85766,-6.64685 1.64381,-7.50451z" fill="#f9a41e" stroke="none" stroke-width="1" stroke-linecap="butt" stroke-linejoin="miter"/><path d="M244.80764,199.33906c2.6445,-0.78623 6.14658,1.28649 8.14779,4.86009c1.78684,3.21619 1.28649,6.93273 -1.28649,7.93334c-3.00182,1.21506 -6.78979,-1.00061 -8.50511,-5.28892c-1.42944,-3.64503 -0.85766,-6.64685 1.64381,-7.50451z" fill="none" stroke="#231f20" stroke-width="0.9025" stroke-linecap="round" stroke-linejoin="round"/></g><g data-paper-data="{&quot;index&quot;:null}"><path d="M220.00693,169.03498c0,0 -11.64996,-6.14658 -14.65177,-12.79351c-3.07325,-6.71836 4.5742,-10.79221 6.50398,-5.71775c1.21498,3.07333 5.71775,10.93524 9.79161,13.93706c3.93099,3.00182 1.21506,6.28953 -1.64381,4.5742z" fill="#f9a41e" stroke="none" stroke-width="1" stroke-linecap="butt" stroke-linejoin="miter"/><path d="M220.00693,169.03498c0,0 -11.64996,-6.14658 -14.65177,-12.79351c-3.07325,-6.71836 4.5742,-10.79221 6.50398,-5.71775c1.21498,3.07333 5.71775,10.93524 9.79161,13.93706c3.93099,3.00182 1.21506,6.28953 -1.64381,4.5742z" fill="none" stroke="#231f20" stroke-width="0.9025" stroke-linecap="round" stroke-linejoin="round"/></g><g data-paper-data="{&quot;index&quot;:null}"><path d="M258.81612,182.75758c0,0 8.36225,-1.42944 11.64996,4.50269c3.71646,6.64692 -4.21688,8.57663 -6.36104,3.93099c-2.57299,-5.21749 -8.36217,-4.50277 -8.36217,-4.50277z" fill="#f9a41e" stroke="none" stroke-width="1" stroke-linecap="butt" stroke-linejoin="miter"/><path d="M258.81612,182.75758c0,0 8.79108,-1.42944 11.64996,4.50269c3.35914,6.8613 -4.21688,8.57663 -6.36104,3.93099c-2.57299,-5.21749 -8.36217,-4.50277 -8.36217,-4.50277z" fill="none" stroke="#231f20" stroke-width="0.9025" stroke-linecap="round" stroke-linejoin="round"/></g><g data-paper-data="{&quot;index&quot;:null}"><path d="M240.44789,149.09429c4.00243,0.21446 7.50451,2.00121 7.50451,2.00121l11.57844,-8.07628l-1.57238,16.43853c0,0 4.64571,3.43065 5.21749,13.15083c0.57178,10.79221 -9.86312,19.58329 -23.51429,20.72684c-18.08235,1.64381 -32.09083,-6.21809 -30.80434,-18.08242c0.71472,-6.21801 5.50329,-6.8613 5.50329,-6.8613c0,0 -0.42883,-4.07386 2.2871,-9.00546c2.71593,-5.00303 7.00424,-7.14719 7.00424,-7.14719l2.2871,-10.00606l7.14719,7.2187c0,0 3.35922,-0.42883 7.36164,-0.3574z" fill="#f9a41e" stroke="none" stroke-width="1" stroke-linecap="butt" stroke-linejoin="miter"/><path d="M229.51265,172.53706c6.28953,1.21506 22.15628,-5.57481 24.87221,4.86009c3.07333,11.29256 -6.14658,15.22355 -14.6517,15.93827c-25.80139,2.35853 -32.23386,-11.4355 -30.80442,-18.08242c1.00061,-4.93152 2.6445,-6.28953 5.50337,-6.8613c6.36096,-1.14355 8.71957,3.00182 15.08053,4.14537z" fill="#ffffff" stroke="none" stroke-width="1" stroke-linecap="butt" stroke-linejoin="miter"/><path d="M246.09413,152.45351l3.28771,-2.35861" fill="none" stroke="#231f20" stroke-width="0.63175" stroke-linecap="round" stroke-linejoin="round"/><path d="M240.44789,149.09429c4.00243,0.21446 7.50451,2.00121 7.50451,2.00121l11.57844,-8.07628l-1.57238,16.43853c0,0 4.64571,3.43065 5.21749,13.15083c0.57178,10.79221 -9.86312,19.58329 -23.51429,20.72684c-18.08235,1.64381 -32.09083,-6.21809 -30.80434,-18.08242c0.71472,-6.21801 5.50329,-6.8613 5.50329,-6.8613c0,0 -0.42883,-4.07386 2.2871,-9.00546c2.71593,-5.00303 7.00424,-7.14719 7.00424,-7.14719l2.2871,-10.00606l7.14719,7.2187c0,0 3.35922,-0.42883 7.36164,-0.3574z" fill="none" stroke="#231f20" stroke-width="0.9025" stroke-linecap="round" stroke-linejoin="round"/></g><g data-paper-data="{&quot;index&quot;:null}" fill="none" stroke="#231f20" stroke-width="0.9025" stroke-linecap="round" stroke-linejoin="round"><path d="M271.03785,176.39655c0,0 -3.57359,0.3574 -5.21749,0.3574c-1.64381,-0.07151 -4.71714,-0.3574 -4.71714,-0.3574"/><path d="M260.88885,173.03741c0,0 2.00121,-1.57238 5.21741,-3.07333c3.57359,-1.64381 5.50337,-2.07264 5.50337,-2.07264"/></g><g data-paper-data="{&quot;index&quot;:null}"><path d="M227.3685,155.16944c2.43004,1.57238 2.43004,5.93213 0,9.86312c-2.50148,3.93091 -6.43247,5.93213 -8.86251,4.35974c-2.43004,-1.57238 -2.43004,-5.93213 0,-9.86312c2.43004,-3.93091 6.43247,-5.86069 8.86251,-4.35974z" fill="#ffffff" stroke="#231f20" stroke-width="0.9025" stroke-linecap="round" stroke-linejoin="round"/><path d="M219.68715,162.13607c0.28589,-0.85766 1.14355,-1.42944 1.92978,-1.28649c0.78615,0.14294 1.35793,1.07204 1.07204,2.00121c-0.21438,0.92909 -1.14355,1.50087 -1.9297,1.28649c-0.78623,-0.14294 -1.35801,-1.07212 -1.07212,-2.00121" fill="#231f20" stroke="none" stroke-width="1" stroke-linecap="butt" stroke-linejoin="miter"/></g><g data-paper-data="{&quot;index&quot;:null}"><path d="M248.953,158.02831c2.85888,1.78676 3.21627,6.43247 0.78623,10.36338c-2.43004,3.93099 -6.78987,5.64632 -9.64874,3.85948c-2.85888,-1.78676 -3.21619,-6.43247 -0.78615,-10.36338c2.43004,-3.93099 6.78979,-5.64632 9.64866,-3.85948z" fill="#ffffff" stroke="#231f20" stroke-width="0.9025" stroke-linecap="round" stroke-linejoin="round"/><path d="M240.69988,164.70905c0,-0.92917 0.64329,-1.64389 1.57238,-1.71533c0.85766,0 1.57238,0.71472 1.57238,1.64381c0,0.92917 -0.78615,1.71533 -1.57238,1.71533c-0.85766,0 -1.57238,-0.71472 -1.57238,-1.64381" fill="#231f20" stroke="none" stroke-width="1" stroke-linecap="butt" stroke-linejoin="miter"/></g><g data-paper-data="{&quot;index&quot;:null}" stroke="#231f20" stroke-linecap="round" stroke-linejoin="round"><path d="M233.72953,171.75091c0.21438,1.35793 -2.93039,3.35914 -4.64571,3.28771c-1.78676,-0.07151 -3.21619,-3.00182 -3.21619,-3.71654c0.28589,-1.71533 2.85888,-1.00061 4.28831,-0.78623c1.28649,0.21446 3.35914,-0.07143 3.57359,1.21506z" fill="#231f20" stroke-width="0.63175"/><path d="M235.2304,178.46927c0.14294,2.21559 -11.0781,0.92909 -11.00667,-0.78623" fill="none" stroke-width="0.9025"/></g><g data-paper-data="{&quot;index&quot;:null}" fill="#231f20" stroke="#231f20" stroke-width="0.63175" stroke-linecap="round" stroke-linejoin="round" opacity="0.1"><path d="M257.1008,189.333c-0.71472,-0.50034 -1.35793,-1.00061 -1.9297,-1.42944"/><path d="M239.51872,195.26512c-0.50026,-0.64321 -0.92909,-1.28649 -1.21498,-1.71533"/></g><g data-paper-data="{&quot;index&quot;:null}" fill="none" stroke="#231f20" stroke-width="0.9025" stroke-linecap="round" stroke-linejoin="round"><path d="M213.07412,172.82295c0,0 -3.93091,-0.57178 -5.93213,-1.21498c-2.35861,-0.71472 -4.00243,-2.07272 -4.00243,-2.07272"/><path d="M212.78823,177.96893c0,0 -2.35853,1.00061 -4.71714,1.28649c-2.35853,0.28589 -4.00243,0.21446 -4.00243,0.21446"/></g></g></g></svg>